<svg width="154" height="37" viewBox="0 0 154 37" fill="none" xmlns="http://www.w3.org/2000/svg">
<rect width="36.0973" height="36.0973" rx="10.097" fill="#1E6069"/>
<g clip-path="url(#clip0_179_5252)">
<path d="M12.1768 19.2619H8.05568C7.72827 19.2619 7.41428 19.1326 7.18277 18.9023C6.95126 18.672 6.8212 18.3596 6.8212 18.0339C6.8212 17.7083 6.95126 17.3959 7.18277 17.1656C7.41428 16.9353 7.72827 16.806 8.05568 16.806H11.5153L12.7961 14.8965C12.9087 14.7276 13.0615 14.5891 13.241 14.4932C13.4205 14.3974 13.6211 14.3473 13.8248 14.3473C14.0285 14.3473 14.2291 14.3974 14.4086 14.4932C14.5881 14.5891 14.7409 14.7276 14.8535 14.8965L17.1167 18.2734L17.734 17.3524C17.8469 17.1841 17.9999 17.0461 18.1794 16.9507C18.3589 16.8554 18.5592 16.8057 18.7627 16.806H21.2317C21.5591 16.806 21.8731 16.9353 22.1046 17.1656C22.3361 17.3959 22.4661 17.7083 22.4661 18.0339C22.4661 18.3596 22.3361 18.672 22.1046 18.9023C21.8731 19.1326 21.5591 19.2619 21.2317 19.2619H19.4211L18.1393 21.1714C18.0267 21.3403 17.8738 21.4788 17.6943 21.5747C17.5148 21.6705 17.3143 21.7206 17.1106 21.7206C16.9068 21.7206 16.7063 21.6705 16.5268 21.5747C16.3473 21.4788 16.1944 21.3403 16.0818 21.1714L13.8186 17.7945L13.2014 18.7155C13.0889 18.8833 12.9365 19.0209 12.7578 19.1162C12.5791 19.2115 12.3795 19.2616 12.1768 19.2619ZM23.0967 7.80079C21.0269 7.80079 19.1876 8.61228 17.9459 10.0071C16.7011 8.61228 14.8648 7.80079 12.794 7.80079C11.122 7.79834 9.50779 8.40971 8.26081 9.51776C7.01383 10.6258 6.22172 12.1526 6.03628 13.8056C6.00027 14.1303 6.09541 14.456 6.30078 14.7109C6.50614 14.9659 6.80492 15.1293 7.13136 15.1651C7.45781 15.2009 7.7852 15.1063 8.0415 14.902C8.2978 14.6977 8.46202 14.4005 8.49803 14.0758C8.61647 13.025 9.12013 12.0546 9.91269 11.35C10.7052 10.6454 11.7311 10.2562 12.794 10.2567C14.6282 10.2567 16.1631 11.2187 16.8009 12.768C16.8931 12.9948 17.0513 13.189 17.2552 13.3258C17.4591 13.4626 17.6994 13.5356 17.9454 13.5356C18.1913 13.5356 18.4316 13.4626 18.6356 13.3258C18.8395 13.189 18.9977 12.9948 19.0898 12.768C19.7277 11.2187 21.2625 10.2567 23.0967 10.2567C24.2436 10.2565 25.3437 10.7089 26.1555 11.5147C26.9673 12.3205 27.4245 13.4139 27.4267 14.5547C27.4267 17.5653 24.7664 20.4664 22.534 22.3687C21.0989 23.5787 19.5649 24.6675 17.9479 25.6239C16.8297 24.9638 14.3093 23.3726 12.1346 21.2513C12.019 21.1381 11.882 21.0487 11.7317 20.9882C11.5813 20.9277 11.4204 20.8972 11.2582 20.8985C11.096 20.8999 10.9357 20.933 10.7863 20.996C10.637 21.0589 10.5016 21.1505 10.3878 21.2656C10.2741 21.3806 10.1842 21.5168 10.1234 21.6664C10.0625 21.816 10.0319 21.976 10.0332 22.1373C10.0359 22.4632 10.1687 22.7747 10.4022 23.0032C13.5285 26.0537 17.2073 28.0379 17.3626 28.1198C17.5428 28.2158 17.744 28.266 17.9485 28.266C18.1529 28.266 18.3541 28.2158 18.5343 28.1198C18.9911 27.8721 29.8956 21.9573 29.8956 14.5547C29.8924 12.7628 29.1747 11.0455 27.9001 9.77929C26.6255 8.51313 24.8981 7.8016 23.0967 7.80079Z" fill="white"/>
</g>
<path d="M53.2699 25.3353C51.8948 25.3353 50.7171 25.0361 49.7368 24.4377C48.7564 23.8329 48.002 22.9926 47.4736 21.9167C46.9516 20.8409 46.6906 19.5931 46.6906 18.1735C46.6906 16.7539 46.9516 15.5062 47.4736 14.4303C48.002 13.3544 48.7564 12.5173 49.7368 11.9189C50.7171 11.3141 51.8948 11.0117 53.2699 11.0117C54.855 11.0117 56.176 11.4096 57.2328 12.2054C58.2895 12.9948 59.0312 14.0611 59.4577 15.4043L57.1373 16.0441C56.8699 15.1465 56.4147 14.4462 55.7717 13.9433C55.1288 13.434 54.2948 13.1794 53.2699 13.1794C52.3468 13.1794 51.5765 13.3863 50.959 13.8001C50.3479 14.2139 49.8864 14.7963 49.5744 15.5475C49.2689 16.2924 49.1129 17.1677 49.1065 18.1735C49.1065 19.1794 49.2593 20.0579 49.5649 20.8091C49.8768 21.5539 50.3415 22.1332 50.959 22.547C51.5765 22.9608 52.3468 23.1677 53.2699 23.1677C54.2948 23.1677 55.1288 22.913 55.7717 22.4037C56.4147 21.8945 56.8699 21.1942 57.1373 20.303L59.4577 20.9427C59.0312 22.286 58.2895 23.3555 57.2328 24.1512C56.176 24.9406 54.855 25.3353 53.2699 25.3353ZM64.4381 25.3353C63.6933 25.3353 63.063 25.1952 62.5474 24.9151C62.0317 24.6287 61.6402 24.2499 61.3729 23.7788C61.1118 23.3077 60.9813 22.7889 60.9813 22.2223C60.9813 21.7258 61.0641 21.2801 61.2296 20.8854C61.3951 20.4844 61.6498 20.1406 61.9935 19.8542C62.3373 19.5613 62.7829 19.3226 63.3304 19.138C63.7442 19.0043 64.228 18.8833 64.7819 18.7751C65.3421 18.6669 65.9468 18.5682 66.5962 18.4791C67.2519 18.3836 67.9362 18.2817 68.6492 18.1735L67.828 18.6414C67.8344 17.9284 67.6752 17.4032 67.3505 17.0658C67.0259 16.7284 66.4784 16.5597 65.7081 16.5597C65.2434 16.5597 64.7946 16.668 64.3617 16.8844C63.9288 17.1008 63.6264 17.4733 63.4545 18.0016L61.3538 17.3428C61.6084 16.4706 62.0922 15.7704 62.8052 15.242C63.5246 14.7136 64.4922 14.4494 65.7081 14.4494C66.6248 14.4494 67.4301 14.599 68.124 14.8982C68.8243 15.1974 69.3431 15.6876 69.6805 16.3688C69.8651 16.7316 69.9765 17.104 70.0147 17.486C70.0529 17.8616 70.072 18.2722 70.072 18.7178V25.0488H68.0572V22.8144L68.3914 23.1772C67.9267 23.922 67.3824 24.4695 66.7585 24.8197C66.141 25.1634 65.3675 25.3353 64.4381 25.3353ZM64.8964 23.5019C65.4185 23.5019 65.8641 23.4096 66.2333 23.225C66.6025 23.0403 66.8954 22.8144 67.1118 22.547C67.3346 22.2796 67.4842 22.0282 67.5606 21.7926C67.6816 21.4998 67.7484 21.1656 67.7612 20.79C67.7803 20.408 67.7898 20.0992 67.7898 19.8637L68.4964 20.0738C67.8025 20.182 67.2073 20.2775 66.7108 20.3603C66.2142 20.443 65.7877 20.5226 65.4312 20.599C65.0747 20.669 64.7596 20.7486 64.4858 20.8377C64.2185 20.9332 63.9925 21.0446 63.8079 21.1719C63.6232 21.2992 63.48 21.4457 63.3781 21.6112C63.2827 21.7767 63.2349 21.9709 63.2349 22.1937C63.2349 22.4483 63.2986 22.6743 63.4259 22.8716C63.5532 23.0626 63.7378 23.2154 63.9797 23.33C64.228 23.4446 64.5336 23.5019 64.8964 23.5019ZM72.5581 25.0488V14.7359H74.592V17.2473L74.3437 16.9226C74.471 16.5788 74.6397 16.2669 74.8498 15.9868C75.0663 15.7003 75.3241 15.4648 75.6233 15.2802C75.8779 15.1083 76.158 14.9746 76.4636 14.8791C76.7755 14.7773 77.0938 14.7168 77.4185 14.6977C77.7432 14.6722 78.0583 14.6849 78.3639 14.7359V16.8844C78.0583 16.7953 77.705 16.7666 77.3039 16.7985C76.9092 16.8303 76.5527 16.9417 76.2344 17.1327C75.9161 17.3046 75.6551 17.5242 75.4514 17.7916C75.2541 18.0589 75.1076 18.3645 75.0122 18.7083C74.9167 19.0457 74.8689 19.4117 74.8689 19.8064V25.0488H72.5581ZM84.6882 25.3353C83.6441 25.3353 82.7274 25.1093 81.938 24.6573C81.1487 24.2053 80.5311 23.5783 80.0855 22.7762C79.6463 21.974 79.4266 21.051 79.4266 20.0069C79.4266 18.8802 79.6431 17.903 80.076 17.0754C80.5089 16.2414 81.1105 15.5953 81.8807 15.1369C82.651 14.6786 83.5423 14.4494 84.5545 14.4494C85.624 14.4494 86.5311 14.7009 87.2759 15.2038C88.0271 15.7003 88.5842 16.4038 88.947 17.3141C89.3099 18.2245 89.4468 19.2971 89.3576 20.5321H87.0754V19.6918C87.0691 18.5714 86.8717 17.7534 86.4834 17.2377C86.0951 16.7221 85.4839 16.4642 84.65 16.4642C83.7078 16.4642 83.0075 16.7571 82.5492 17.3428C82.0908 17.9221 81.8616 18.7719 81.8616 19.8924C81.8616 20.9364 82.0908 21.7449 82.5492 22.3178C83.0075 22.8907 83.676 23.1772 84.5545 23.1772C85.121 23.1772 85.6081 23.0531 86.0155 22.8048C86.4293 22.5502 86.7476 22.1841 86.9704 21.7067L89.243 22.3942C88.8484 23.3236 88.2372 24.0462 87.4096 24.5618C86.5884 25.0775 85.6813 25.3353 84.6882 25.3353ZM81.1359 20.5321V18.7942H88.2309V20.5321H81.1359ZM91.4883 25.0488V11.2982H92.7774L98.1821 22.8621L103.558 11.2982H104.866V25.0393H103.53V14.4303L98.6309 25.0488H97.7238L92.8347 14.4303V25.0488H91.4883ZM110.497 25.3353C109.72 25.3353 109.068 25.1952 108.539 24.9151C108.017 24.635 107.626 24.2626 107.365 23.7979C107.104 23.3332 106.973 22.8271 106.973 22.2796C106.973 21.7194 107.085 21.2419 107.308 20.8473C107.537 20.4462 107.846 20.1183 108.234 19.8637C108.629 19.6091 109.084 19.4149 109.599 19.2812C110.121 19.1539 110.697 19.0425 111.328 18.947C111.964 18.8451 112.585 18.7592 113.19 18.6892C113.801 18.6128 114.336 18.5396 114.794 18.4695L114.297 18.7751C114.317 17.7565 114.119 17.0022 113.705 16.512C113.292 16.0218 112.572 15.7767 111.547 15.7767C110.841 15.7767 110.242 15.9359 109.752 16.2542C109.268 16.5725 108.928 17.0754 108.73 17.7629L107.365 17.3619C107.6 16.4388 108.075 15.7226 108.788 15.2133C109.501 14.704 110.427 14.4494 111.566 14.4494C112.509 14.4494 113.308 14.6276 113.963 14.9841C114.625 15.3343 115.093 15.8436 115.367 16.512C115.494 16.8112 115.577 17.1454 115.615 17.5146C115.653 17.8839 115.673 18.2595 115.673 18.6414V25.0488H114.422V22.461L114.784 22.6138C114.434 23.4987 113.89 24.1735 113.152 24.6382C112.413 25.1029 111.528 25.3353 110.497 25.3353ZM110.659 24.1226C111.315 24.1226 111.888 24.0048 112.378 23.7693C112.868 23.5337 113.263 23.2122 113.562 22.8048C113.861 22.391 114.056 21.9263 114.145 21.4106C114.221 21.0796 114.262 20.7167 114.269 20.3221C114.275 19.921 114.278 19.6218 114.278 19.4244L114.813 19.7014C114.336 19.765 113.817 19.8287 113.257 19.8924C112.703 19.956 112.155 20.0292 111.614 20.112C111.079 20.1947 110.596 20.2934 110.163 20.408C109.87 20.4908 109.587 20.6085 109.313 20.7613C109.039 20.9077 108.813 21.1051 108.635 21.3534C108.463 21.6016 108.377 21.9104 108.377 22.2796C108.377 22.5788 108.45 22.8685 108.597 23.1486C108.749 23.4287 108.991 23.661 109.322 23.8456C109.66 24.0303 110.105 24.1226 110.659 24.1226ZM122.007 25.3258C120.797 25.3258 119.801 25.0647 119.018 24.5427C118.241 24.0207 117.764 23.295 117.585 22.3655L119.018 22.1268C119.171 22.7125 119.518 23.1804 120.059 23.5305C120.606 23.8743 121.281 24.0462 122.083 24.0462C122.866 24.0462 123.484 23.8838 123.936 23.5592C124.388 23.2281 124.614 22.7793 124.614 22.2128C124.614 21.8945 124.54 21.6366 124.394 21.4393C124.254 21.2356 123.964 21.0478 123.525 20.8759C123.086 20.704 122.43 20.5003 121.558 20.2648C120.622 20.0101 119.89 19.7555 119.362 19.5008C118.833 19.2462 118.458 18.9534 118.235 18.6223C118.012 18.2849 117.901 17.8743 117.901 17.3905C117.901 16.8048 118.066 16.2924 118.397 15.8531C118.728 15.4075 119.187 15.0637 119.772 14.8218C120.358 14.5735 121.039 14.4494 121.816 14.4494C122.592 14.4494 123.286 14.5767 123.897 14.8314C124.515 15.0796 125.011 15.4298 125.387 15.8818C125.763 16.3337 125.985 16.8589 126.055 17.4573L124.623 17.7152C124.528 17.1104 124.225 16.6329 123.716 16.2828C123.213 15.9263 122.573 15.7417 121.797 15.729C121.065 15.7099 120.469 15.8499 120.011 16.1491C119.553 16.442 119.323 16.8335 119.323 17.3237C119.323 17.5974 119.406 17.8329 119.572 18.0303C119.737 18.2213 120.036 18.4027 120.469 18.5746C120.909 18.7465 121.532 18.9343 122.341 19.138C123.289 19.3799 124.034 19.6345 124.575 19.9019C125.116 20.1693 125.502 20.4844 125.731 20.8473C125.96 21.2101 126.075 21.6589 126.075 22.1937C126.075 23.1677 125.712 23.9348 124.986 24.495C124.267 25.0488 123.274 25.3258 122.007 25.3258ZM133.807 25.0488C133.228 25.1698 132.655 25.2175 132.088 25.1921C131.528 25.1666 131.025 25.0456 130.58 24.8292C130.14 24.6128 129.806 24.2754 129.577 23.817C129.392 23.435 129.291 23.0499 129.271 22.6616C129.259 22.2669 129.252 21.8181 129.252 21.3152V11.8712H130.646V21.2579C130.646 21.6908 130.65 22.0536 130.656 22.3465C130.669 22.6329 130.736 22.8876 130.857 23.1104C131.086 23.5369 131.449 23.7915 131.945 23.8743C132.448 23.9571 133.069 23.938 133.807 23.817V25.0488ZM127.046 15.939V14.7359H133.807V15.939H127.046ZM139.83 25.3353C138.824 25.3353 137.952 25.1125 137.214 24.6669C136.481 24.2212 135.912 23.5942 135.504 22.7857C135.097 21.9772 134.893 21.0287 134.893 19.9401C134.893 18.8133 135.094 17.8393 135.495 17.0181C135.896 16.1969 136.459 15.5635 137.185 15.1178C137.917 14.6722 138.78 14.4494 139.773 14.4494C140.791 14.4494 141.66 14.6849 142.38 15.156C143.099 15.6207 143.643 16.2892 144.012 17.1613C144.382 18.0335 144.55 19.0743 144.519 20.2839H143.086V19.7873C143.061 18.4504 142.771 17.4414 142.217 16.7603C141.67 16.0791 140.868 15.7385 139.811 15.7385C138.703 15.7385 137.853 16.0982 137.261 16.8176C136.676 17.5369 136.383 18.5619 136.383 19.8924C136.383 21.191 136.676 22.2 137.261 22.9194C137.853 23.6324 138.69 23.9889 139.773 23.9889C140.511 23.9889 141.154 23.8202 141.702 23.4828C142.255 23.139 142.691 22.6457 143.01 22.0027L144.318 22.5088C143.911 23.4064 143.309 24.1035 142.513 24.6C141.724 25.0902 140.829 25.3353 139.83 25.3353ZM135.886 20.2839V19.1093H143.764V20.2839H135.886ZM146.638 25.0488V14.7359H147.898V17.2186L147.65 16.894C147.764 16.5884 147.914 16.3083 148.099 16.0536C148.283 15.7926 148.484 15.5794 148.7 15.4139C148.968 15.1783 149.28 15.0001 149.636 14.8791C149.993 14.7518 150.352 14.6786 150.715 14.6595C151.078 14.634 151.409 14.6595 151.708 14.7359V16.0536C151.333 15.9581 150.922 15.9359 150.476 15.9868C150.031 16.0377 149.62 16.216 149.245 16.5215C148.901 16.7889 148.643 17.1104 148.471 17.486C148.299 17.8552 148.185 18.2499 148.127 18.6701C148.07 19.0839 148.041 19.4945 148.041 19.9019V25.0488H146.638Z" fill="white"/>
<defs>
<clipPath id="clip0_179_5252">
<rect width="24.0455" height="20.8816" fill="white" transform="translate(5.93945 7.59326)"/>
</clipPath>
</defs>
</svg>
