<svg width="24" height="24" viewBox="0 0 24 24" xmlns="http://www.w3.org/2000/svg">
  <path d="M20.75 4.1V10.9C20.75 11.5651 20.6051 11.8366 20.4673 11.9662C20.3181 12.1067 19.9997 12.25 19.27 12.25H15.23C14.5003 12.25 14.1819 12.1067 14.0327 11.9662C13.8949 11.8366 13.75 11.5651 13.75 10.9V4.1C13.75 3.43486 13.8949 3.16336 14.0327 3.03376C14.1819 2.89334 14.5003 2.75 15.23 2.75H19.27C19.9997 2.75 20.3181 2.89334 20.4673 3.03376C20.6051 3.16336 20.75 3.43486 20.75 4.1Z" stroke="#4F4F50" stroke-width="1.5"/>
  <path d="M10.25 4.1V6.9C10.25 7.56514 10.1051 7.83664 9.96735 7.96624C9.81809 8.10666 9.49969 8.25 8.77 8.25H4.73C4.00032 8.25 3.68191 8.10666 3.53265 7.96624C3.3949 7.83664 3.25 7.56514 3.25 6.9V4.1C3.25 3.43486 3.3949 3.16336 3.53265 3.03376C3.68191 2.89334 4.00032 2.75 4.73 2.75H8.77C9.49969 2.75 9.81809 2.89334 9.96735 3.03376C10.1051 3.16336 10.25 3.43486 10.25 4.1Z" stroke="#4F4F50" stroke-width="1.5"/>
  <path d="M10.25 13.1V19.9C10.25 20.5651 10.1051 20.8366 9.96735 20.9662C9.81809 21.1067 9.49969 21.25 8.77 21.25H4.73C4.00032 21.25 3.68191 21.1067 3.53265 20.9662C3.3949 20.8366 3.25 20.5651 3.25 19.9V13.1C3.25 12.4349 3.3949 12.1634 3.53265 12.0338C3.68191 11.8933 4.00032 11.75 4.73 11.75H8.77C9.49969 11.75 9.81809 11.8933 9.96735 12.0338C10.1051 12.1634 10.25 12.4349 10.25 13.1Z" stroke="#4F4F50" stroke-width="1.5"/>
  <path d="M20.75 17.1V19.9C20.75 20.5651 20.6051 20.8366 20.4673 20.9662C20.3181 21.1067 19.9997 21.25 19.27 21.25H15.23C14.5003 21.25 14.1819 21.1067 14.0327 20.9662C13.8949 20.8366 13.75 20.5651 13.75 19.9V17.1C13.75 16.4349 13.8949 16.1634 14.0327 16.0338C14.1819 15.8933 14.5003 15.75 15.23 15.75H19.27C19.9997 15.75 20.3181 15.8933 20.4673 16.0338C20.6051 16.1634 20.75 16.4349 20.75 17.1Z" stroke="#4F4F50" stroke-width="1.5"/>
</svg>
