<svg width="30" height="30" viewBox="0 0 30 30" fill="none" xmlns="http://www.w3.org/2000/svg">
<path d="M0 11.9502C0 8.23814 0 6.38211 0.606437 4.91804C1.41502 2.96595 2.96595 1.41502 4.91804 0.606437C6.38211 0 8.23814 0 11.9502 0H18.0498C21.7619 0 23.6179 0 25.082 0.606437C27.034 1.41502 28.585 2.96595 29.3936 4.91804C30 6.38211 30 8.23814 30 11.9502V18.0498C30 21.7619 30 23.6179 29.3936 25.082C28.585 27.034 27.034 28.585 25.082 29.3936C23.6179 30 21.7619 30 18.0498 30H11.9502C8.23814 30 6.38211 30 4.91804 29.3936C2.96595 28.585 1.41502 27.034 0.606437 25.082C0 23.6179 0 21.7619 0 18.0498V11.9502Z" fill="currentColor"/>
<g clip-path="url(#clip0_100_1245)">
<path d="M21.25 15.4766L15 21.6666L8.74997 15.4766C8.33772 15.0754 8.013 14.5932 7.79626 14.0604C7.57951 13.5276 7.47543 12.9557 7.49058 12.3807C7.50573 11.8057 7.63977 11.24 7.88426 10.7194C8.12876 10.1987 8.47841 9.73428 8.9112 9.35539C9.344 8.97649 9.85055 8.69131 10.399 8.5178C10.9474 8.3443 11.5258 8.28622 12.0978 8.34724C12.6697 8.40825 13.2229 8.58703 13.7224 8.87233C14.2218 9.15762 14.6568 9.54324 15 10.0049C15.3446 9.54659 15.7801 9.16434 16.2792 8.88207C16.7784 8.59981 17.3304 8.42361 17.9007 8.3645C18.4711 8.3054 19.0475 8.36465 19.5939 8.53856C20.1404 8.71247 20.645 8.9973 21.0763 9.37521C21.5075 9.75311 21.8562 10.216 22.1003 10.7348C22.3445 11.2537 22.4789 11.8173 22.4952 12.3905C22.5115 12.9637 22.4094 13.5341 22.1951 14.0659C21.9808 14.5978 21.6591 15.0798 21.25 15.4816" stroke="white" stroke-width="1.5" stroke-linecap="round" stroke-linejoin="round"/>
<path d="M15 10L12.2558 12.7442C12.0996 12.9004 12.0118 13.1124 12.0118 13.3333C12.0118 13.5543 12.0996 13.7662 12.2558 13.9225L12.7083 14.375C13.2833 14.95 14.2167 14.95 14.7917 14.375L15.625 13.5417C16.1223 13.0444 16.7967 12.765 17.5 12.765C18.2033 12.765 18.8777 13.0444 19.375 13.5417L21.25 15.4167" stroke="white" stroke-width="1.5" stroke-linecap="round" stroke-linejoin="round"/>
<path d="M15.4166 17.9167L17.0833 19.5834" stroke="white" stroke-width="1.5" stroke-linecap="round" stroke-linejoin="round"/>
<path d="M17.5 15.8333L19.1667 17.4999" stroke="white" stroke-width="1.5" stroke-linecap="round" stroke-linejoin="round"/>
</g>
<defs>
<clipPath id="clip0_100_1245">
<rect width="20" height="20" fill="white" transform="translate(5 5)"/>
</clipPath>
</defs>
</svg>
