<svg width="25" height="26" viewBox="0 0 25 26" fill="none" xmlns="http://www.w3.org/2000/svg">
<path d="M3.125 21.3334L4.47917 17.2709C3.3088 15.5399 2.88541 13.4901 3.28773 11.5025C3.69005 9.51484 4.89069 7.72472 6.66642 6.46493C8.44216 5.20514 10.6721 4.56141 12.9418 4.65344C15.2114 4.74546 17.3662 5.56697 19.0055 6.96523C20.6448 8.36348 21.6572 10.2433 21.8542 12.2553C22.0513 14.2672 21.4197 16.2743 20.0769 17.9033C18.7342 19.5324 16.7715 20.6726 14.554 21.1119C12.3364 21.5512 10.0148 21.2598 8.02083 20.2917L3.125 21.3334Z" stroke="currentColor" stroke-width="1.5" stroke-linecap="round" stroke-linejoin="round"/>
<path d="M12.5 13V13.0104" stroke="currentColor" stroke-width="2" stroke-linecap="round" stroke-linejoin="round"/>
<path d="M8.33337 13V13.0104" stroke="currentColor" stroke-width="2" stroke-linecap="round" stroke-linejoin="round"/>
<path d="M16.6666 13V13.0104" stroke="currentColor" stroke-width="2" stroke-linecap="round" stroke-linejoin="round"/>
</svg>
