<svg width="25" height="26" viewBox="0 0 25 26" fill="none" xmlns="http://www.w3.org/2000/svg">
<path d="M12.5001 3.62503H12.9094C11.5712 4.86848 10.7111 6.54154 10.4785 8.35339C10.2459 10.1652 10.6555 12.0013 11.6362 13.5425C12.6169 15.0836 14.1067 16.2324 15.8465 16.7891C17.5863 17.3458 19.4662 17.2752 21.1594 16.5896C20.5081 18.1568 19.4436 19.5178 18.0794 20.5274C16.7153 21.537 15.1026 22.1574 13.4135 22.3223C11.7244 22.4873 10.0222 22.1906 8.48848 21.464C6.95476 20.7374 5.64705 19.6081 4.70484 18.1965C3.76262 16.7849 3.22126 15.1441 3.13848 13.449C3.0557 11.7538 3.43462 10.068 4.23482 8.5714C5.03502 7.07475 6.22647 5.82339 7.6821 4.9508C9.13773 4.0782 10.8029 3.61711 12.5001 3.6167V3.62503Z" stroke="currentColor" stroke-width="1.5" stroke-linecap="round" stroke-linejoin="round"/>
<path d="M17.7083 4.66675C17.7083 5.21928 17.9278 5.74919 18.3185 6.13989C18.7092 6.53059 19.2391 6.75008 19.7917 6.75008C19.2391 6.75008 18.7092 6.96957 18.3185 7.36028C17.9278 7.75098 17.7083 8.28088 17.7083 8.83341C17.7083 8.28088 17.4888 7.75098 17.0981 7.36028C16.7074 6.96957 16.1775 6.75008 15.625 6.75008C16.1775 6.75008 16.7074 6.53059 17.0981 6.13989C17.4888 5.74919 17.7083 5.21928 17.7083 4.66675Z" stroke="currentColor" stroke-width="2" stroke-linecap="round" stroke-linejoin="round"/>
<path d="M20.8334 10.9167V13.0001M19.7917 11.9584H21.8751H19.7917Z" stroke="currentColor" stroke-width="2" stroke-linecap="round" stroke-linejoin="round"/>
</svg>
