<svg width="42" height="42" viewBox="0 0 42 42" fill="none" xmlns="http://www.w3.org/2000/svg">
<rect y="2" width="40" height="40" rx="20" fill="white"/>
<path fill-rule="evenodd" clip-rule="evenodd" d="M21 13C21 12.4477 20.5523 12 20 12C19.4477 12 19 12.4477 19 13V13.5709C15.6077 14.0561 13 16.9735 13 20.5V25.5L12.2824 26.7558C11.711 27.7558 12.433 29 13.5847 29H16.126C16.5701 30.7252 18.1362 32 20 32C21.8638 32 23.4299 30.7252 23.874 29H26.4152C27.5669 29 28.289 27.7558 27.7176 26.7558L27 25.5V20.5C27 16.9735 24.3923 14.0561 21 13.5709V13ZM15 26.0311L14.4463 27H25.5536L25 26.0311V20.5C25 17.7386 22.7614 15.5 20 15.5C17.2385 15.5 15 17.7386 15 20.5V26.0311ZM20 30C19.2597 30 18.6134 29.5978 18.2676 29H21.7324C21.3866 29.5978 20.7403 30 20 30Z" fill="#667085"/>
</svg>
