<svg width="21" height="22" viewBox="0 0 21 22" fill="none" xmlns="http://www.w3.org/2000/svg">
<path d="M8.75521 2.99687C9.19896 1.16771 11.801 1.16771 12.2448 2.99687C12.3114 3.27167 12.4419 3.52685 12.6257 3.74167C12.8096 3.95648 13.0416 4.12485 13.3028 4.23307C13.564 4.34129 13.847 4.3863 14.1289 4.36445C14.4108 4.34259 14.6836 4.25448 14.925 4.10729C16.5323 3.12812 18.3729 4.96771 17.3937 6.57604C17.2468 6.81735 17.1588 7.08993 17.137 7.37164C17.1152 7.65334 17.1602 7.93622 17.2683 8.19727C17.3764 8.45832 17.5445 8.69019 17.7591 8.87401C17.9737 9.05784 18.2286 9.18844 18.5031 9.25521C20.3323 9.69896 20.3323 12.301 18.5031 12.7448C18.2283 12.8114 17.9731 12.9419 17.7583 13.1257C17.5435 13.3096 17.3752 13.5416 17.2669 13.8028C17.1587 14.064 17.1137 14.347 17.1356 14.6289C17.1574 14.9108 17.2455 15.1836 17.3927 15.425C18.3719 17.0323 16.5323 18.8729 14.924 17.8937C14.6826 17.7468 14.4101 17.6588 14.1284 17.637C13.8467 17.6152 13.5638 17.6602 13.3027 17.7683C13.0417 17.8764 12.8098 18.0445 12.626 18.2591C12.4422 18.4737 12.3116 18.7286 12.2448 19.0031C11.801 20.8323 9.19896 20.8323 8.75521 19.0031C8.68863 18.7283 8.5581 18.4731 8.37426 18.2583C8.19042 18.0435 7.95845 17.8752 7.69724 17.7669C7.43603 17.6587 7.15295 17.6137 6.87106 17.6356C6.58916 17.6574 6.31641 17.7455 6.075 17.8927C4.46771 18.8719 2.62708 17.0323 3.60625 15.424C3.75323 15.1826 3.8412 14.9101 3.863 14.6284C3.88481 14.3467 3.83984 14.0638 3.73174 13.8027C3.62365 13.5417 3.45548 13.3098 3.24091 13.126C3.02634 12.9422 2.77142 12.8116 2.49687 12.7448C0.667708 12.301 0.667708 9.69896 2.49687 9.25521C2.77167 9.18863 3.02685 9.0581 3.24167 8.87426C3.45648 8.69042 3.62485 8.45845 3.73307 8.19724C3.84129 7.93603 3.8863 7.65295 3.86445 7.37106C3.84259 7.08916 3.75448 6.81641 3.60729 6.575C2.62812 4.96771 4.46771 3.12708 6.07604 4.10625C7.11771 4.73958 8.46771 4.17917 8.75521 2.99687Z" stroke="currentColor" stroke-width="1.5" stroke-linecap="round" stroke-linejoin="round"/>
<path d="M10.5 14.125C12.2259 14.125 13.625 12.7259 13.625 11C13.625 9.27411 12.2259 7.875 10.5 7.875C8.77411 7.875 7.375 9.27411 7.375 11C7.375 12.7259 8.77411 14.125 10.5 14.125Z" stroke="currentColor" stroke-width="1.5" stroke-linecap="round" stroke-linejoin="round"/>
</svg>
